<svg t="1749476966383" class="icon" viewBox="0 0 1024 1024" version="1.1" xmlns="http://www.w3.org/2000/svg" p-id="7112" width="30" height="30"><path d="M813.653333 592.213333L554.666667 850.773333V938.666667h87.893333l258.56-258.986667m67.413333-100.266667l-54.613333-54.613333a22.058667 22.058667 0 0 0-16.213333-7.253333c-6.4 0.426667-12.373333 2.56-16.64 7.253333l-42.666667 42.666667 87.466667 85.333333 42.666666-42.666667c8.106667-8.533333 8.106667-22.186667 0-30.72M469.333333 768H170.666667V341.333333l341.333333 213.333334 341.333333-213.333334v85.333334h85.333334V256c0-46.933333-38.4-85.333333-85.333334-85.333333H170.666667c-46.933333 0-85.333333 38.4-85.333334 85.333333v512c0 46.933333 38.4 85.333333 85.333334 85.333333h298.666666v-85.333333m384-512l-341.333333 213.333333-341.333333-213.333333h682.666666z" p-id="7113" fill="#ffffff"></path></svg>